<?xml version="1.0" encoding="UTF-8"?>
<svg xmlns="http://www.w3.org/2000/svg" xmlns:xlink="http://www.w3.org/1999/xlink" width="100px" height="100px" viewBox="0 0 100 100" version="1.1">
<g id="surface1">
<path style=" stroke:none;fill-rule:nonzero;fill:rgb(0%,0%,0%);fill-opacity:1;" d="M 80.132812 47.488281 C 79.421875 46.613281 78.136719 46.476562 77.261719 47.1875 L 76.550781 47.761719 C 75.675781 48.46875 75.539062 49.757812 76.25 50.632812 C 76.652344 51.128906 77.242188 51.390625 77.835938 51.390625 C 78.289062 51.390625 78.742188 51.238281 79.121094 50.933594 L 79.828125 50.359375 C 80.703125 49.648438 80.839844 48.367188 80.132812 47.488281 Z M 80.132812 47.488281 "/>
<path style=" stroke:none;fill-rule:nonzero;fill:rgb(0%,0%,0%);fill-opacity:1;" d="M 74.289062 52.21875 C 73.582031 51.34375 72.296875 51.207031 71.417969 51.914062 L 56.828125 63.570312 C 55.953125 64.28125 55.816406 65.566406 56.527344 66.441406 C 56.929688 66.9375 57.519531 67.199219 58.113281 67.199219 C 58.566406 67.199219 59.019531 67.046875 59.394531 66.742188 L 73.988281 55.089844 C 74.863281 54.378906 75 53.09375 74.289062 52.21875 Z M 74.289062 52.21875 "/>
<path style=" stroke:none;fill-rule:nonzero;fill:rgb(0%,0%,0%);fill-opacity:1;" d="M 87.839844 12.242188 L 12.160156 12.242188 C 5.453125 12.242188 0 17.699219 0 24.402344 L 0 75.597656 C 0 82.300781 5.453125 87.757812 12.160156 87.757812 L 87.839844 87.757812 C 94.546875 87.757812 100 82.300781 100 75.597656 L 100 24.402344 C 100 17.699219 94.546875 12.242188 87.839844 12.242188 Z M 82.015625 16.324219 L 49.972656 42.226562 L 17.929688 16.324219 Z M 83.617188 83.675781 L 16.328125 83.675781 L 16.328125 36.011719 L 48.691406 62.085938 C 49.4375 62.6875 50.503906 62.6875 51.253906 62.085938 L 83.617188 36.011719 Z M 95.917969 75.597656 C 95.917969 80.050781 92.292969 83.675781 87.839844 83.675781 L 87.699219 83.675781 L 87.699219 31.746094 C 87.699219 30.960938 87.25 30.246094 86.539062 29.90625 C 85.832031 29.566406 84.992188 29.664062 84.378906 30.15625 L 49.972656 57.875 L 15.566406 30.15625 C 14.953125 29.664062 14.113281 29.566406 13.40625 29.90625 C 12.695312 30.246094 12.246094 30.960938 12.246094 31.746094 L 12.246094 83.675781 L 12.160156 83.675781 C 7.707031 83.675781 4.082031 80.050781 4.082031 75.597656 L 4.082031 24.402344 C 4.082031 20.179688 7.339844 16.703125 11.476562 16.355469 L 48.691406 46.4375 C 49.0625 46.738281 49.519531 46.890625 49.972656 46.890625 C 50.425781 46.890625 50.882812 46.738281 51.253906 46.4375 L 88.472656 16.351562 C 92.632812 16.675781 95.917969 20.160156 95.917969 24.402344 Z M 95.917969 75.597656 "/>
</g>
</svg>
